{
    "asset" : {
        "generator" : "Khronos glTF Blender I/O v1.2.75",
        "version" : "2.0"
    },
    "scene" : 0,
    "scenes" : [
        {
            "name" : "Scene",
            "nodes" : [
                0,
                1,
                2
            ]
        }
    ],
    "nodes" : [
        {
            "name" : "Light",
            "rotation" : [
                0.16907577216625214,
                0.7558802962303162,
                -0.27217137813568115,
                0.570947527885437
            ],
            "translation" : [
                4.076245307922363,
                5.903861999511719,
                -1.0054538249969482
            ]
        },
        {
            "name" : "Camera",
            "rotation" : [
                0.483536034822464,
                0.33687159419059753,
                -0.20870360732078552,
                0.7804827094078064
            ],
            "translation" : [
                7.358891487121582,
                4.958309173583984,
                6.925790786743164
            ]
        },
        {
            "mesh" : 0,
            "name" : "111",
            "translation" : [
                -44.919281005859375,
                0,
                46.84507751464844
            ]
        }
    ],
    "meshes" : [
        {
            "name" : "111",
            "primitives" : [
                {
                    "attributes" : {
                        "POSITION" : 0,
                        "NORMAL" : 1
                    },
                    "indices" : 2
                }
            ]
        }
    ],
    "accessors" : [
        {
            "bufferView" : 0,
            "componentType" : 5126,
            "count" : 1486,
            "max" : [
                89.48928833007812,
                7,
                0
            ],
            "min" : [
                0,
                -3.469446951953614e-15,
                -94
            ],
            "type" : "VEC3"
        },
        {
            "bufferView" : 1,
            "componentType" : 5126,
            "count" : 1486,
            "type" : "VEC3"
        },
        {
            "bufferView" : 2,
            "componentType" : 5123,
            "count" : 2928,
            "type" : "SCALAR"
        }
    ],
    "bufferViews" : [
        {
            "buffer" : 0,
            "byteLength" : 17832,
            "byteOffset" : 0
        },
        {
            "buffer" : 0,
            "byteLength" : 17832,
            "byteOffset" : 17832
        },
        {
            "buffer" : 0,
            "byteLength" : 5856,
            "byteOffset" : 35664
        }
    ],
    "buffers" : [
        {
            "byteLength" : 41520,
            "uri" : "data:application/octet-stream;base64,"
        }
    ]
}
